<svg xmlns="http://www.w3.org/2000/svg" width="16" height="16" viewBox="0 0 16 16" fill="none">
<path d="M12.6667 14.6668H3.33333C2.59695 14.6668 2 14.0699 2 13.3335V4.00016C2 3.26378 2.59695 2.66683 3.33333 2.66683H4.66667V1.3335H6V2.66683H10V1.3335H11.3333V2.66683H12.6667C13.403 2.66683 14 3.26378 14 4.00016V13.3335C14 14.0699 13.403 14.6668 12.6667 14.6668ZM3.33333 6.66683V13.3335H12.6667V6.66683H3.33333ZM3.33333 4.00016V5.3335H12.6667V4.00016H3.33333ZM11.3333 12.0002H10V10.6668H11.3333V12.0002ZM8.66667 12.0002H7.33333V10.6668H8.66667V12.0002ZM6 12.0002H4.66667V10.6668H6V12.0002ZM11.3333 9.3335H10V8.00016H11.3333V9.3335ZM8.66667 9.3335H7.33333V8.00016H8.66667V9.3335ZM6 9.3335H4.66667V8.00016H6V9.3335Z" fill="white"/>
</svg>