<svg xmlns="http://www.w3.org/2000/svg" width="124" height="122" viewBox="0 0 124 122" fill="none">
  <path d="M62.2638 110.744C34.7517 110.721 12.0838 89.648 10.7065 62.8147C9.32906 35.9815 29.7253 12.8007 57.0971 10.0908V30.4747C41.5486 33.0407 30.4573 46.6063 31.3368 61.9815C32.2163 77.3568 44.7858 89.6316 60.5302 90.4905C76.2747 91.3494 90.1659 80.5181 92.7936 65.3342H113.667C110.979 91.0994 88.779 110.709 62.2586 110.744H62.2638ZM113.672 55.2432H92.7988C90.6 42.5572 80.4214 32.6194 67.4304 30.4747V10.0908C91.8536 12.5328 111.164 31.3878 113.667 55.2381L113.672 55.2432Z" fill="#B4EFE0"/>
</svg>