<svg xmlns="http://www.w3.org/2000/svg" width="16" height="16" viewBox="0 0 16 16" fill="none">
  <path d="M8.00065 14.6666C7.07843 14.6666 6.21176 14.4916 5.40065 14.1416C4.58954 13.7916 3.88398 13.3166 3.28398 12.7166C2.68398 12.1166 2.20898 11.411 1.85898 10.5999C1.50898 9.78881 1.33398 8.92214 1.33398 7.99992C1.33398 7.0777 1.50898 6.21103 1.85898 5.39992C2.20898 4.58881 2.68398 3.88325 3.28398 3.28325C3.88398 2.68325 4.58954 2.20825 5.40065 1.85825C6.21176 1.50825 7.07843 1.33325 8.00065 1.33325C8.92287 1.33325 9.78954 1.50825 10.6007 1.85825C11.4118 2.20825 12.1173 2.68325 12.7173 3.28325C13.3173 3.88325 13.7923 4.58881 14.1423 5.39992C14.4923 6.21103 14.6673 7.0777 14.6673 7.99992V8.88325C14.6673 9.50547 14.4479 10.0305 14.009 10.4583C13.5701 10.886 13.034 11.0999 12.4007 11.0999C12.0007 11.0999 11.6229 11.0027 11.2673 10.8083C10.9118 10.6138 10.6395 10.3388 10.4507 9.98325C10.1618 10.361 9.80065 10.6416 9.36732 10.8249C8.93398 11.0083 8.47843 11.0999 8.00065 11.0999C7.13398 11.0999 6.39787 10.7999 5.79232 10.1999C5.18676 9.59992 4.88398 8.86658 4.88398 7.99992C4.88398 7.13325 5.18676 6.39436 5.79232 5.78325C6.39787 5.17214 7.13398 4.86659 8.00065 4.86659C8.86732 4.86659 9.60343 5.17214 10.209 5.78325C10.8145 6.39436 11.1173 7.13325 11.1173 7.99992V8.88325C11.1173 9.2277 11.2423 9.51658 11.4923 9.74992C11.7423 9.98325 12.0451 10.0999 12.4007 10.0999C12.7451 10.0999 13.0423 9.98325 13.2923 9.74992C13.5423 9.51658 13.6673 9.2277 13.6673 8.88325V7.99992C13.6673 6.42214 13.1173 5.08325 12.0173 3.98325C10.9173 2.88325 9.57843 2.33325 8.00065 2.33325C6.42287 2.33325 5.08398 2.88325 3.98398 3.98325C2.88398 5.08325 2.33398 6.42214 2.33398 7.99992C2.33398 9.5777 2.88398 10.9166 3.98398 12.0166C5.08398 13.1166 6.42287 13.6666 8.00065 13.6666H11.5673V14.6666H8.00065ZM8.00065 10.0999C8.58954 10.0999 9.08954 9.89714 9.50065 9.49158C9.91176 9.08603 10.1173 8.58881 10.1173 7.99992C10.1173 7.39992 9.91176 6.89436 9.50065 6.48325C9.08954 6.07214 8.58954 5.86658 8.00065 5.86658C7.41176 5.86658 6.91176 6.07214 6.50065 6.48325C6.08954 6.89436 5.88398 7.39992 5.88398 7.99992C5.88398 8.58881 6.08954 9.08603 6.50065 9.49158C6.91176 9.89714 7.41176 10.0999 8.00065 10.0999Z" fill="#A7A7A7"/>
</svg>