<svg xmlns="http://www.w3.org/2000/svg" width="11" height="14" viewBox="0 0 11 14" fill="none">
  <path d="M1 14C0.725 14 0.489583 13.9021 0.29375 13.7063C0.0979167 13.5104 0 13.275 0 13V5.76667C0 5.49167 0.0979167 5.25625 0.29375 5.06042C0.489583 4.86458 0.725 4.76667 1 4.76667H2.16667V3.16667C2.16667 2.29056 2.47559 1.54375 3.09343 0.92625C3.71128 0.30875 4.4585 0 5.3351 0C6.2117 0 6.95833 0.30875 7.575 0.92625C8.19167 1.54375 8.5 2.29056 8.5 3.16667V4.76667H9.66667C9.94167 4.76667 10.1771 4.86458 10.3729 5.06042C10.5688 5.25625 10.6667 5.49167 10.6667 5.76667V13C10.6667 13.275 10.5688 13.5104 10.3729 13.7063C10.1771 13.9021 9.94167 14 9.66667 14H1ZM1 13H9.66667V5.76667H1V13ZM5.33613 10.6667C5.68982 10.6667 5.99167 10.5443 6.24167 10.2995C6.49167 10.0547 6.61667 9.76042 6.61667 9.41667C6.61667 9.08333 6.49073 8.78056 6.23887 8.50833C5.987 8.23611 5.68422 8.1 5.33053 8.1C4.97684 8.1 4.675 8.23611 4.425 8.50833C4.175 8.78056 4.05 9.08611 4.05 9.425C4.05 9.76389 4.17593 10.0556 4.4278 10.3C4.67967 10.5444 4.98244 10.6667 5.33613 10.6667ZM3.16667 4.76667H7.5V3.16667C7.5 2.56481 7.28954 2.05324 6.86863 1.63195C6.44771 1.21065 5.9366 1 5.3353 1C4.73399 1 4.22222 1.21065 3.8 1.63195C3.37778 2.05324 3.16667 2.56481 3.16667 3.16667V4.76667Z" fill="#A7A7A7"/>
</svg>