<svg width="166" height="166" viewBox="0 0 166 166" fill="none" xmlns="http://www.w3.org/2000/svg">
<g id="Group">
<path id="Vector" d="M79.3258 0.7336C68.7219 1.49922 58.1945 7.31797 51.6102 16.0461C48.6625 19.9891 46.1359 25.1953 44.8344 30.0188C43.9539 33.3109 43.8391 34.5742 43.8008 39.7422C43.8008 44.757 43.9539 46.2117 44.6813 49.0828C49.3516 67.1516 64.6641 79.1719 83.0008 79.1719C105.816 79.1719 123.77 60.0695 122.277 37.407C121.129 19.568 108.075 4.60001 90.7719 1.30782C87.0586 0.580475 83.8047 0.42735 79.3258 0.7336Z" fill="#21AA85"/>
<path id="Vector_2" d="M65.0084 87.4024C33.4264 91.7281 8.3139 115.271 1.99749 146.432C1.07874 151.026 0.313116 159.984 0.619366 162.319C0.849054 163.773 2.34202 165.152 4.06468 165.458C4.8303 165.573 40.5467 165.688 83.3834 165.649C142.719 165.649 161.592 165.534 162.587 165.19C164.961 164.348 165.42 163.238 165.344 158.529C165.19 148.461 162.434 137.321 157.764 128.019C146.547 105.663 125.493 90.618 100.878 87.4024C95.0592 86.675 70.5209 86.6367 65.0084 87.4024Z" fill="#21AA85"/>
</g>
</svg>
