<?xml version="1.0" encoding="iso-8859-1" ?>
<svg width="74" height="22" viewBox="0 0 74 22" fill="none" xmlns="http://www.w3.org/2000/svg">
<path d="M67.6544 14.5044H66.3364C66.1168 14.5044 65.9703 14.2611 66.068 14.0664L69.3628 7.61726L66.068 1.28983C65.9703 1.09514 66.1168 0.851776 66.3364 0.851776H67.6544C68.8747 0.851776 69.6801 1.3385 70.217 2.28762L73.341 7.59293L70.2658 12.8982C69.6801 13.9204 68.9235 14.5044 67.6544 14.5044Z" fill="#48B6AB"/>
<path d="M38.562 15.5752V13.9934V13.2633C38.562 11.073 39.3674 10.1239 41.9301 10.1239C44.4927 10.1239 45.2493 11.073 45.2493 13.2876V15.5752C45.2493 17.7898 44.566 18.7146 41.9301 18.7146C39.2942 18.7146 38.562 17.7655 38.562 15.5752ZM35.8529 12.5575V15.6239C35.8529 19.396 38.0983 21.2456 41.9057 21.2456C45.9571 21.2456 47.9584 19.396 47.9584 15.6239V13.3606C47.9584 9.53983 46.1036 7.61726 42.4182 7.61726C40.5633 7.61726 39.2698 8.20133 38.562 9.3208V4.38053C38.562 3.5531 37.9763 2.84735 37.2197 2.60399C36.8048 2.4823 36.2678 2.53098 36.2678 2.53098C36.0482 2.53098 35.8529 2.70133 35.8529 2.92036V12.5575V12.5575Z" fill="#1C2D4E"/>
<path d="M32.6801 10.0022C32.6801 9.10178 32.0455 8.32302 31.2157 8.07966C31.0449 8.03099 30.8496 8.00665 30.6544 8.00665H30.1907C29.9466 8.00665 29.7513 8.20134 29.7513 8.44471V19.2257C29.7513 20.1261 30.3859 20.9049 31.2157 21.1482C31.3866 21.1969 31.5818 21.2213 31.7771 21.2213H32.2408C32.4849 21.2213 32.6801 21.0266 32.6801 20.7832V10.0022V10.0022Z" fill="#1C2D4E"/>
<path d="M0.878639 16.0133C0.878639 19.323 2.6603 21.2212 6.58972 21.2212H6.61413C10.5435 21.2212 12.3252 19.2987 12.3252 16.0133V9.88053C12.3252 8.83407 11.471 8.00664 10.4459 8.00664H10.0066C9.78695 8.00664 9.5917 8.20133 9.5917 8.42036V16.0376C9.5917 17.7168 9.03035 18.6659 6.56531 18.6659C4.10027 18.6659 3.53893 17.7168 3.53893 16.0376V9.88053C3.53893 9.02876 2.95318 8.32301 2.17217 8.07965C1.83049 7.9823 1.22033 8.00664 1.22033 8.00664C1.00067 8.00664 0.80542 8.20133 0.80542 8.42036V16.0133H0.878639Z" fill="#1C2D4E"/>
<path d="M26.5785 12.8252C26.5785 9.51548 24.7968 7.61725 20.8674 7.61725H20.843C16.9136 7.61725 15.1319 9.51548 15.1319 12.8252V19.3717C15.1319 20.4181 15.9861 21.2456 17.0112 21.2456H17.4505C17.6702 21.2456 17.8654 21.0509 17.8654 20.8318V12.8252C17.8654 11.146 18.4268 10.1969 20.8918 10.1969C23.3569 10.1969 23.9182 11.146 23.9182 12.8252V19.3717C23.9182 20.2234 24.504 20.9292 25.285 21.1726C25.6266 21.2699 26.2368 21.2456 26.2368 21.2456C26.4565 21.2456 26.6517 21.0509 26.6517 20.8318V12.8252H26.5785Z" fill="#1C2D4E"/>
<path d="M62.8219 13.3606C62.8219 9.53983 60.967 7.61726 57.2817 7.61726C55.4268 7.61726 54.1333 8.20133 53.4255 9.3208V4.38053C53.4255 3.5531 52.8397 2.84735 52.0831 2.60399C51.6682 2.4823 51.1313 2.53098 51.1313 2.53098C50.9116 2.53098 50.7164 2.70133 50.7164 2.92036V19.3473C50.7164 20.3938 51.5706 21.2212 52.5957 21.2212H53.0106C53.2302 21.2212 53.4255 21.0266 53.4255 20.8075V13.2633C53.4255 11.073 54.2309 10.1239 56.7935 10.1239C59.3562 10.1239 60.1128 11.073 60.1128 13.2876V19.323C60.1128 20.3695 60.967 21.1969 61.9921 21.1969H62.4314C62.6511 21.1969 62.8463 21.0022 62.8463 20.7832L62.8219 13.3606Z" fill="#1C2D4E"/>
</svg>
