<?xml version="1.0" encoding="utf-8"?>
<!-- Generator: Adobe Illustrator 26.0.3, SVG Export Plug-In . SVG Version: 6.00 Build 0)  -->
<svg version="1.1" id="Ebene_1" xmlns="http://www.w3.org/2000/svg" xmlns:xlink="http://www.w3.org/1999/xlink" x="0px" y="0px"
	 viewBox="-100 0 1358.5 308.3" style="enable-background:new 0 0 1158.5 308.3;" xml:space="preserve">
<style type="text/css">
	.st0{fill:#7A00E6;}
</style>
<path d="M474.3,201.6c0-27.5,0-54.9,0-82.4c0-1.8-0.1-3.6,0.2-5.3c0.9-6.6,4.3-11.3,10.8-13.5c20.7-7.2,41.9-12,63.8-13.8
	c15.4-1.3,30.8-1.2,46.1,1.1c11.2,1.7,22,4.7,32,10c19.6,10.3,30.5,26.8,34.2,48.4c1,5.6,1.3,11.2,1.3,16.8c0,41,0,81.9,0,122.9
	c0,0.8,0,1.6,0,2.4c-0.2,5.8-2.8,8.6-8.6,8.7c-12.2,0.1-24.4,0.1-36.6,0c-5.5,0-8.2-2.8-8.6-8.3c-0.1-1.4,0-2.9,0-4.3
	c0-37.3,0-74.5,0-111.8c0-4.8-0.3-9.7-1.8-14.3c-4.1-12.2-13.2-18.6-25.2-21.3c-9.9-2.2-19.8-1.5-29.8-0.5
	c-4.6,0.4-9.2,1.4-13.7,2.5c-7.8,1.8-10.1,4.8-10.1,12.8c0,44.3,0,88.7,0,133c0,1.3,0,2.6,0,3.9c-0.2,5.4-3,8.3-8.5,8.4
	c-6.4,0.1-12.9,0-19.3,0c-5.6,0-11.3,0.1-16.9,0c-6.6-0.1-9.3-2.9-9.3-9.5C474.3,258.8,474.3,230.2,474.3,201.6z"/>
<path d="M166.2,296.9c-6.1,0-12.2,0.1-18.3,0c-6.2-0.1-8.3-2.9-6.6-9.1c1.2-4.5,2.2-9,2.3-13.7c0.2-11.9-4.7-21.1-14.2-27.9
	c-7-5-14.8-8.4-22.9-11c-13.4-4.3-27-8.3-40.4-12.6c-10.9-3.5-21.3-7.9-30.8-14.4c-16-11-24-26.2-24.9-45.5
	c-1.7-34.9,17.7-60.6,49.6-72c14.7-5.2,30-7,45.5-6.6c24.7,0.7,48.4,5.6,70.8,16.2c3.2,1.5,6.3,3.1,9.4,4.9c6.4,3.6,8,8.1,5.3,14.9
	c-1,2.5-2.2,5-3.3,7.5c-3.1,6.5-6.1,13.1-9.3,19.6c-3.6,7.4-9.4,9.4-16.6,5.5c-12-6.5-24.4-12.1-37.8-15.3
	c-13.1-3.1-26.3-4.4-39.6-1.4c-4.1,0.9-8,2.4-11.5,4.8c-10.2,7.1-10.6,19.5-0.9,27.2c4.3,3.4,9.3,5.6,14.5,7.5
	c12.5,4.6,25.5,7.7,38.2,11.6c11.8,3.6,23.5,7.7,34.4,13.6c7.5,4.1,14.5,8.9,20.5,15c12.7,12.9,18.2,28.8,18.7,46.6
	c0.3,8-0.4,16-2.6,23.8c-0.3,1.2-0.7,2.5-1.1,3.7c-2,5.4-4.4,7.1-10.1,7.2C178.4,297,172.3,296.9,166.2,296.9
	C166.2,296.9,166.2,296.9,166.2,296.9z"/>
<path d="M950.9,187.1c0-31.8-0.1-63.6,0-95.4c0-14.1,2.2-27.8,7.8-40.9c9.8-22.7,27.6-35.7,51.3-41c16.7-3.7,33.5-3.7,50.2-0.2
	c0.3,0.1,0.6,0.1,0.9,0.2c8.2,1.9,10,4.6,8.4,13c-1.4,7.3-2.7,14.5-4.1,21.7c-1.4,7.5-4,9.4-11.7,8.3c-6-0.8-12.1-1.9-18.2-1.8
	c-3.4,0.1-6.8,0.5-10,1.3c-12.2,2.9-19.3,11.8-20.7,25.3c-0.3,2.9-0.4,5.8-0.5,8.7c-0.1,3.4-0.1,3.5,3.3,3.5c9.2,0,18.3,0,27.5,0
	c6.8,0,13.5,0,20.3,0c7.3,0,9.8,2.6,9.9,9.9c0.1,8.7,0.1,17.3,0,26c0,7.3-2.6,9.7-10,9.7c-15.3,0-30.5,0-45.8,0c-1.1,0-2.2,0-3.4,0
	c-1.2,0-1.7,0.6-1.7,1.8c0,1.3,0,2.6,0,3.9c0,48-0.1,96,0.1,144.1c0,8-2,12-11.6,11.7c-10.6-0.3-21.2-0.3-31.8,0
	c-7.4,0.2-10.3-4.1-10.2-10.2C951,253.6,950.9,220.3,950.9,187.1z"/>
<path d="M1149.7,193.3c0,30.3,0,60.7,0,91c0,1,0,1.9,0,2.9c-0.1,7.2-2.6,9.7-10,9.7c-9.3,0-18.6,0-28,0c-2.6,0-5.1,0.1-7.7,0
	c-4.9-0.2-7.7-2.8-8.2-7.7c-0.2-1.4-0.1-2.9-0.1-4.3c0-61,0-122,0-183.1c0-9.8,2.2-11.9,11.8-11.9c10.8,0,21.5,0,32.3,0
	c7.2,0,9.8,2.6,9.9,9.9C1149.7,131,1149.7,162.1,1149.7,193.3z"/>
<path class="st0" d="M1151.4,36c0.1,13.7-6.7,23.7-18.6,27.1c-6.6,1.9-13.3,1.8-19.9-0.1c-13.3-3.9-19.4-15-19-28.9
	c0.1-2.2,0.4-4.5,0.9-6.7c2.5-10.3,8.9-16.9,19.2-19.3c6.8-1.6,13.7-1.3,20.4,1.1c10.5,3.8,15.6,11.7,16.9,22.5
	C1151.5,33.1,1151.4,34.6,1151.4,36z"/>
<path class="st0" d="M64.7,272.3c-0.2,3.1-0.3,5.9-1,8.8c-2.9,10.9-10,17.3-20.9,19.4c-5.7,1.1-11.5,0.8-17.1-1
	c-8.9-2.9-14.9-8.7-17.3-17.8c-1.8-6.8-1.7-13.7,0.5-20.4c2.9-8.7,9-14.2,17.9-16.5c6.2-1.6,12.4-1.4,18.6,0.2
	c10.8,2.8,18.1,11.5,19.1,22.7C64.6,269.3,64.7,270.9,64.7,272.3z"/>
<path d="M424,116.2c-0.4-7.7-3.8-13.1-11.4-15.5c-0.5-0.1-0.9-0.3-1.4-0.5c-20-7.4-40.5-12.2-61.8-13.8c-15.1-1.1-30.2-1.2-45,2.3
	c-36.5,8.6-61.5,30.2-73.1,66.1c-9,27.9-8,56.1,1.3,83.7c6.9,20.6,19.7,36.9,38.7,48c15,8.8,31.4,13,48.5,14
	c19.7,1.2,39.1-0.3,58.4-4.7c12.1-2.8,23.8-6.6,35.2-11.4c6.4-2.7,9.9-7.4,10.5-14.3c0.1-1.6,0.1-3.2,0.1-4.8c0-24.2,0-48.5,0-72.7
	c0-24.1,0-48.2,0-72.2C424,119.1,424.1,117.6,424,116.2z M362.5,246.6c-15.2,4.8-30.8,6.8-46.5,2.7c-15.6-4.1-26.2-14.1-31.4-29.2
	c-6.1-17.5-6.2-35.4-0.1-52.9c6.8-19.4,21.3-29.5,41.6-31.3c10.8-0.9,21.5,0.1,32,2.9c1.2,0.3,2.5,0.7,3.7,1.1
	c6.2,2.3,8.3,5.2,8.4,11.9c0.1,14,0,27.9,0,41.9c0,13.8-0.1,27.6,0,41.4C370.2,240.9,367.8,244.9,362.5,246.6z"/>
<path d="M906.4,159.2c-9.2-32-28.8-54.8-60.2-66.5c-20-7.4-40.7-8.8-61.7-5c-31.6,5.7-55.5,22.5-69.7,51.4
	c-15.8,32.2-16.6,65.6-4.2,99c10.7,28.9,31.5,47.9,60.7,57.5c17.5,5.7,35.6,6.9,53.8,4.2c32.5-4.7,57.1-21.2,72.7-50.2
	c9.4-17.5,13-36.4,13.1-60.3C910.8,181.8,909.6,170.4,906.4,159.2z M851.3,221.5c-8.1,22.1-27.4,31.5-48.6,29.5
	c-5.5-0.5-10.8-1.5-15.9-3.6c-12.3-5.1-20.6-14.1-25-26.5c-6.5-18.5-6.5-37.2,0.2-55.6c7-19.3,23.2-30,43.8-29.7
	c4.8,0.1,9.6,0.5,14.3,1.7c15.3,4,25.8,13.5,31.2,28.1C858.1,184.1,858.1,203,851.3,221.5z"/>
</svg>
